<svg width="222" height="89" viewBox="0 0 222 89" fill="none" xmlns="http://www.w3.org/2000/svg">
<path d="M16.352 40.8C17.92 40.8 19.1147 40.4453 19.936 39.736C20.7947 38.9893 21.224 37.8693 21.224 36.376C21.224 34.9573 20.776 33.8747 19.88 33.128C19.0213 32.344 17.752 31.952 16.072 31.952C15.4747 31.952 14.9707 31.9707 14.56 32.008C14.1867 32.008 13.7947 32.0453 13.384 32.12V40.8H16.352ZM13.44 58.776C13.0293 58.888 12.376 59 11.48 59.112C10.6213 59.224 9.76267 59.28 8.904 59.28C8.04533 59.28 7.28 59.2053 6.608 59.056C5.97333 58.944 5.432 58.72 4.984 58.384C4.536 58.048 4.2 57.5813 3.976 56.984C3.752 56.3867 3.64 55.6027 3.64 54.632V28.256C3.64 27.472 3.84533 26.8747 4.256 26.464C4.704 26.016 5.30133 25.6613 6.048 25.4C7.31733 24.952 8.75467 24.6347 10.36 24.448C12.0027 24.224 13.6453 24.112 15.288 24.112C20.44 24.112 24.3787 25.2133 27.104 27.416C29.8293 29.6187 31.192 32.6053 31.192 36.376C31.192 38.2053 30.8933 39.8667 30.296 41.36C29.736 42.816 28.8773 44.0853 27.72 45.168C26.6 46.2133 25.1627 47.0347 23.408 47.632C21.6907 48.192 19.6933 48.472 17.416 48.472H13.44V58.776ZM35.4511 32.176C35.8244 32.064 36.4031 31.952 37.1871 31.84C38.0084 31.728 38.8484 31.672 39.7071 31.672C40.5284 31.672 41.2564 31.728 41.8911 31.84C42.5631 31.952 43.1231 32.176 43.5711 32.512C44.0191 32.848 44.3551 33.3147 44.5791 33.912C44.8404 34.472 44.9711 35.2187 44.9711 36.152V48.192C44.9711 49.7227 45.3444 50.824 46.0911 51.496C46.8377 52.1307 47.9204 52.448 49.3391 52.448C50.1977 52.448 50.8884 52.3733 51.4111 52.224C51.9711 52.0747 52.4004 51.9253 52.6991 51.776V32.176C53.0724 32.064 53.6511 31.952 54.4351 31.84C55.2564 31.728 56.0964 31.672 56.9551 31.672C57.7764 31.672 58.5044 31.728 59.1391 31.84C59.8111 31.952 60.3711 32.176 60.8191 32.512C61.2671 32.848 61.6031 33.3147 61.8271 33.912C62.0884 34.472 62.2191 35.2187 62.2191 36.152V53.176C62.2191 55.0427 61.4351 56.4427 59.8671 57.376C58.5604 58.1973 56.9924 58.8133 55.1631 59.224C53.3711 59.672 51.4111 59.896 49.2831 59.896C47.2671 59.896 45.4004 59.672 43.6831 59.224C42.0031 58.776 40.5471 58.0853 39.3151 57.152C38.0831 56.2187 37.1311 55.024 36.4591 53.568C35.7871 52.0747 35.4511 50.2827 35.4511 48.192V32.176ZM77.7328 58.944C77.3221 59.0187 76.7061 59.112 75.8848 59.224C75.1008 59.3733 74.2981 59.448 73.4768 59.448C72.6555 59.448 71.9088 59.392 71.2368 59.28C70.6021 59.168 70.0608 58.944 69.6128 58.608C69.1648 58.272 68.8101 57.824 68.5488 57.264C68.3248 56.6667 68.2128 55.9013 68.2128 54.968V22.488C68.6235 22.4133 69.2208 22.32 70.0048 22.208C70.8261 22.0587 71.6475 21.984 72.4688 21.984C73.2901 21.984 74.0181 22.04 74.6528 22.152C75.3248 22.264 75.8848 22.488 76.3328 22.824C76.7808 23.16 77.1168 23.6267 77.3408 24.224C77.6021 24.784 77.7328 25.5307 77.7328 26.464V58.944ZM106.7 50.88C106.7 53.7173 105.636 55.9387 103.508 57.544C101.38 59.1493 98.2441 59.952 94.1001 59.952C92.5321 59.952 91.0761 59.84 89.7321 59.616C88.3881 59.392 87.2308 59.056 86.2601 58.608C85.3268 58.1227 84.5801 57.5253 84.0201 56.816C83.4975 56.1067 83.2361 55.2667 83.2361 54.296C83.2361 53.4 83.4228 52.6533 83.7961 52.056C84.1695 51.4213 84.6175 50.8987 85.1401 50.488C86.2228 51.0853 87.4548 51.6267 88.8361 52.112C90.2548 52.56 91.8788 52.784 93.7081 52.784C94.8655 52.784 95.7428 52.616 96.3401 52.28C96.9748 51.944 97.2921 51.496 97.2921 50.936C97.2921 50.4133 97.0681 50.0027 96.6201 49.704C96.1721 49.4053 95.4255 49.1627 94.3801 48.976L92.7001 48.64C89.4521 48.0053 87.0255 47.016 85.4201 45.672C83.8521 44.2907 83.0681 42.3307 83.0681 39.792C83.0681 38.4107 83.3668 37.16 83.9641 36.04C84.5615 34.92 85.4015 33.9867 86.4841 33.24C87.5668 32.4933 88.8548 31.9147 90.3481 31.504C91.8788 31.0933 93.5588 30.888 95.3881 30.888C96.7695 30.888 98.0575 31 99.2521 31.224C100.484 31.4107 101.548 31.7093 102.444 32.12C103.34 32.5307 104.049 33.072 104.572 33.744C105.095 34.3787 105.356 35.144 105.356 36.04C105.356 36.8987 105.188 37.6453 104.852 38.28C104.553 38.8773 104.161 39.3813 103.676 39.792C103.377 39.6053 102.929 39.4187 102.332 39.232C101.735 39.008 101.081 38.8213 100.372 38.672C99.6628 38.4853 98.9348 38.336 98.1881 38.224C97.4788 38.112 96.8255 38.056 96.2281 38.056C94.9961 38.056 94.0441 38.2053 93.3721 38.504C92.7001 38.7653 92.3641 39.1947 92.3641 39.792C92.3641 40.2027 92.5508 40.5387 92.9241 40.8C93.2975 41.0613 94.0068 41.304 95.0521 41.528L96.7881 41.92C100.372 42.7413 102.911 43.88 104.404 45.336C105.935 46.7547 106.7 48.6027 106.7 50.88ZM139.744 45.392C139.744 47.7067 139.389 49.7787 138.68 51.608C137.971 53.4 136.963 54.912 135.656 56.144C134.387 57.376 132.856 58.3093 131.064 58.944C129.272 59.5787 127.275 59.896 125.072 59.896C122.869 59.896 120.872 59.56 119.08 58.888C117.288 58.216 115.739 57.264 114.432 56.032C113.163 54.7627 112.173 53.232 111.464 51.44C110.755 49.648 110.4 47.632 110.4 45.392C110.4 43.1893 110.755 41.192 111.464 39.4C112.173 37.608 113.163 36.096 114.432 34.864C115.739 33.5947 117.288 32.624 119.08 31.952C120.872 31.28 122.869 30.944 125.072 30.944C127.275 30.944 129.272 31.2987 131.064 32.008C132.856 32.68 134.387 33.6507 135.656 34.92C136.963 36.152 137.971 37.664 138.68 39.456C139.389 41.248 139.744 43.2267 139.744 45.392ZM120.144 45.392C120.144 47.6693 120.573 49.424 121.432 50.656C122.328 51.8507 123.56 52.448 125.128 52.448C126.696 52.448 127.891 51.832 128.712 50.6C129.571 49.368 130 47.632 130 45.392C130 43.152 129.571 41.4347 128.712 40.24C127.853 39.008 126.64 38.392 125.072 38.392C123.504 38.392 122.291 39.008 121.432 40.24C120.573 41.4347 120.144 43.152 120.144 45.392ZM159.733 38.448C158.799 38.448 157.903 38.5973 157.045 38.896C156.223 39.1947 155.495 39.6427 154.861 40.24C154.263 40.8 153.778 41.5093 153.405 42.368C153.031 43.2267 152.845 44.2347 152.845 45.392C152.845 47.7067 153.498 49.4427 154.805 50.6C156.149 51.7573 157.773 52.336 159.677 52.336C160.797 52.336 161.767 52.2053 162.589 51.944C163.41 51.6827 164.138 51.4027 164.773 51.104C165.519 51.6267 166.079 52.2053 166.453 52.84C166.826 53.4373 167.013 54.1653 167.013 55.024C167.013 56.5547 166.285 57.7493 164.829 58.608C163.373 59.4293 161.357 59.84 158.781 59.84C156.429 59.84 154.301 59.504 152.397 58.832C150.493 58.1227 148.85 57.152 147.469 55.92C146.125 54.6507 145.079 53.1387 144.333 51.384C143.586 49.6293 143.213 47.688 143.213 45.56C143.213 43.096 143.605 40.9493 144.389 39.12C145.21 37.2533 146.311 35.7227 147.693 34.528C149.074 33.3333 150.661 32.4373 152.453 31.84C154.282 31.2427 156.205 30.944 158.221 30.944C160.909 30.944 162.981 31.4293 164.437 32.4C165.893 33.3707 166.621 34.6213 166.621 36.152C166.621 36.8613 166.453 37.5333 166.117 38.168C165.781 38.7653 165.389 39.288 164.941 39.736C164.306 39.4373 163.541 39.1573 162.645 38.896C161.749 38.5973 160.778 38.448 159.733 38.448ZM183.435 52.952C184.07 52.952 184.76 52.896 185.507 52.784C186.291 52.6347 186.87 52.448 187.243 52.224V47.744L183.211 48.08C182.166 48.1547 181.307 48.3787 180.635 48.752C179.963 49.1253 179.627 49.6853 179.627 50.432C179.627 51.1787 179.907 51.7947 180.467 52.28C181.064 52.728 182.054 52.952 183.435 52.952ZM182.987 30.944C185.003 30.944 186.832 31.1493 188.475 31.56C190.155 31.9707 191.574 32.6053 192.731 33.464C193.926 34.2853 194.84 35.3493 195.475 36.656C196.11 37.9253 196.427 39.4373 196.427 41.192V53.736C196.427 54.7067 196.147 55.5093 195.587 56.144C195.064 56.7413 194.43 57.264 193.683 57.712C191.256 59.168 187.84 59.896 183.435 59.896C181.456 59.896 179.664 59.7093 178.059 59.336C176.491 58.9627 175.128 58.4027 173.971 57.656C172.851 56.9093 171.974 55.9573 171.339 54.8C170.742 53.6427 170.443 52.2987 170.443 50.768C170.443 48.192 171.208 46.2133 172.739 44.832C174.27 43.4507 176.64 42.592 179.851 42.256L187.187 41.472V41.08C187.187 39.9973 186.702 39.232 185.731 38.784C184.798 38.2987 183.435 38.056 181.643 38.056C180.224 38.056 178.843 38.2053 177.499 38.504C176.155 38.8027 174.942 39.176 173.859 39.624C173.374 39.288 172.963 38.784 172.627 38.112C172.291 37.4027 172.123 36.6747 172.123 35.928C172.123 34.9573 172.347 34.192 172.795 33.632C173.28 33.0347 174.008 32.5307 174.979 32.12C176.062 31.7093 177.331 31.4107 178.787 31.224C180.28 31.0373 181.68 30.944 182.987 30.944ZM211.768 49.648C211.768 50.6187 212.067 51.3093 212.664 51.72C213.299 52.1307 214.176 52.336 215.296 52.336C215.856 52.336 216.435 52.2987 217.032 52.224C217.629 52.112 218.152 51.9813 218.6 51.832C218.936 52.2427 219.216 52.7093 219.44 53.232C219.701 53.7173 219.832 54.3147 219.832 55.024C219.832 56.4427 219.291 57.6 218.208 58.496C217.163 59.392 215.296 59.84 212.608 59.84C209.323 59.84 206.784 59.0933 204.992 57.6C203.237 56.1067 202.36 53.68 202.36 50.32V26.352C202.771 26.24 203.349 26.128 204.096 26.016C204.88 25.8667 205.701 25.792 206.56 25.792C208.203 25.792 209.472 26.0907 210.368 26.688C211.301 27.248 211.768 28.4613 211.768 30.328V33.912H219.104C219.328 34.3227 219.533 34.8453 219.72 35.48C219.944 36.0773 220.056 36.7493 220.056 37.496C220.056 38.8027 219.757 39.7547 219.16 40.352C218.6 40.912 217.835 41.192 216.864 41.192H211.768V49.648Z" fill="#6E79D6"/>
<path d="M8.11364 68.2727V69.4091H3.40909V68.2727H8.11364ZM4.81818 77V67.0682C4.81818 66.5682 4.93561 66.1515 5.17045 65.8182C5.4053 65.4848 5.71023 65.2348 6.08523 65.0682C6.46023 64.9015 6.85606 64.8182 7.27273 64.8182C7.60227 64.8182 7.87121 64.8447 8.07955 64.8977C8.28788 64.9508 8.44318 65 8.54545 65.0455L8.15909 66.2045C8.09091 66.1818 7.99621 66.1534 7.875 66.1193C7.75758 66.0852 7.60227 66.0682 7.40909 66.0682C6.96591 66.0682 6.64583 66.1799 6.44886 66.4034C6.25568 66.6269 6.15909 66.9545 6.15909 67.3864V77H4.81818ZM13.179 77.1818C12.3911 77.1818 11.6998 76.9943 11.1051 76.6193C10.5142 76.2443 10.0521 75.7197 9.71875 75.0455C9.3892 74.3712 9.22443 73.5833 9.22443 72.6818C9.22443 71.7727 9.3892 70.9792 9.71875 70.3011C10.0521 69.6231 10.5142 69.0966 11.1051 68.7216C11.6998 68.3466 12.3911 68.1591 13.179 68.1591C13.9669 68.1591 14.6563 68.3466 15.2472 68.7216C15.8419 69.0966 16.304 69.6231 16.6335 70.3011C16.9669 70.9792 17.1335 71.7727 17.1335 72.6818C17.1335 73.5833 16.9669 74.3712 16.6335 75.0455C16.304 75.7197 15.8419 76.2443 15.2472 76.6193C14.6563 76.9943 13.9669 77.1818 13.179 77.1818ZM13.179 75.9773C13.7775 75.9773 14.2699 75.8239 14.6562 75.517C15.0426 75.2102 15.3286 74.8068 15.5142 74.3068C15.6998 73.8068 15.7926 73.2652 15.7926 72.6818C15.7926 72.0985 15.6998 71.5549 15.5142 71.0511C15.3286 70.5473 15.0426 70.1402 14.6562 69.8295C14.2699 69.5189 13.7775 69.3636 13.179 69.3636C12.5805 69.3636 12.0881 69.5189 11.7017 69.8295C11.3153 70.1402 11.0294 70.5473 10.8438 71.0511C10.6581 71.5549 10.5653 72.0985 10.5653 72.6818C10.5653 73.2652 10.6581 73.8068 10.8438 74.3068C11.0294 74.8068 11.3153 75.2102 11.7017 75.517C12.0881 75.8239 12.5805 75.9773 13.179 75.9773ZM19.1804 77V68.2727H20.4759V69.5909H20.5668C20.7259 69.1591 21.0137 68.8087 21.4304 68.5398C21.8471 68.2708 22.3168 68.1364 22.8395 68.1364C22.938 68.1364 23.0611 68.1383 23.2088 68.142C23.3565 68.1458 23.4683 68.1515 23.544 68.1591V69.5227C23.4986 69.5114 23.3944 69.4943 23.2315 69.4716C23.0724 69.4451 22.9039 69.4318 22.7259 69.4318C22.3016 69.4318 21.9228 69.5208 21.5895 69.6989C21.2599 69.8731 20.9986 70.1155 20.8054 70.4261C20.616 70.733 20.5213 71.0833 20.5213 71.4773V77H19.1804ZM30.2926 77H28.8153L33.0881 65.3636H34.5426L38.8153 77H37.3381L33.8608 67.2045H33.7699L30.2926 77ZM30.8381 72.4545H36.7926V73.7045H30.8381V72.4545ZM40.446 80.2727V68.2727H41.7415V69.6591H41.9006C41.9991 69.5076 42.1354 69.3144 42.3097 69.0795C42.4877 68.8409 42.7415 68.6288 43.071 68.4432C43.4044 68.2538 43.8551 68.1591 44.4233 68.1591C45.1581 68.1591 45.8059 68.3428 46.3665 68.7102C46.9271 69.0777 47.3646 69.5985 47.679 70.2727C47.9934 70.947 48.1506 71.7424 48.1506 72.6591C48.1506 73.5833 47.9934 74.3845 47.679 75.0625C47.3646 75.7367 46.929 76.2595 46.3722 76.6307C45.8153 76.9981 45.1733 77.1818 44.446 77.1818C43.8854 77.1818 43.4366 77.089 43.0994 76.9034C42.7623 76.714 42.5028 76.5 42.321 76.2614C42.1392 76.0189 41.9991 75.8182 41.9006 75.6591H41.7869V80.2727H40.446ZM41.7642 72.6364C41.7642 73.2955 41.8608 73.8769 42.054 74.3807C42.2472 74.8807 42.5294 75.2727 42.9006 75.5568C43.2718 75.8371 43.7263 75.9773 44.2642 75.9773C44.8248 75.9773 45.2926 75.8295 45.6676 75.5341C46.0464 75.2348 46.3305 74.8333 46.5199 74.3295C46.7131 73.822 46.8097 73.2576 46.8097 72.6364C46.8097 72.0227 46.715 71.4697 46.5256 70.9773C46.34 70.4811 46.0578 70.089 45.679 69.8011C45.304 69.5095 44.8324 69.3636 44.2642 69.3636C43.7188 69.3636 43.2604 69.5019 42.8892 69.7784C42.518 70.0511 42.2377 70.4337 42.0483 70.9261C41.8589 71.4148 41.7642 71.9848 41.7642 72.6364ZM52.7642 77.2045C52.2112 77.2045 51.7093 77.1004 51.2585 76.892C50.8078 76.6799 50.4498 76.375 50.1847 75.9773C49.9195 75.5758 49.7869 75.0909 49.7869 74.5227C49.7869 74.0227 49.8854 73.6174 50.0824 73.3068C50.2794 72.9924 50.5426 72.7462 50.8722 72.5682C51.2017 72.3902 51.5653 72.2576 51.9631 72.1705C52.3646 72.0795 52.768 72.0076 53.1733 71.9545C53.7036 71.8864 54.1335 71.8352 54.4631 71.8011C54.7964 71.7633 55.0388 71.7008 55.1903 71.6136C55.3456 71.5265 55.4233 71.375 55.4233 71.1591V71.1136C55.4233 70.553 55.2699 70.1174 54.9631 69.8068C54.66 69.4962 54.1998 69.3409 53.5824 69.3409C52.9422 69.3409 52.4403 69.4811 52.0767 69.7614C51.7131 70.0417 51.4574 70.3409 51.3097 70.6591L50.0369 70.2045C50.2642 69.6742 50.5672 69.2614 50.946 68.9659C51.3286 68.6667 51.7453 68.4583 52.196 68.3409C52.6506 68.2197 53.0975 68.1591 53.5369 68.1591C53.8172 68.1591 54.1392 68.1932 54.5028 68.2614C54.8703 68.3258 55.2244 68.4602 55.5653 68.6648C55.91 68.8693 56.196 69.178 56.4233 69.5909C56.6506 70.0038 56.7642 70.5568 56.7642 71.25V77H55.4233V75.8182H55.3551C55.2642 76.0076 55.1127 76.2102 54.9006 76.4261C54.6884 76.642 54.4063 76.8258 54.054 76.9773C53.7017 77.1288 53.2718 77.2045 52.7642 77.2045ZM52.9688 76C53.4991 76 53.946 75.8958 54.3097 75.6875C54.6771 75.4792 54.9536 75.2102 55.1392 74.8807C55.3286 74.5511 55.4233 74.2045 55.4233 73.8409V72.6136C55.3665 72.6818 55.2415 72.7443 55.0483 72.8011C54.8589 72.8542 54.6392 72.9015 54.3892 72.9432C54.143 72.9811 53.9025 73.0152 53.6676 73.0455C53.4366 73.072 53.2491 73.0947 53.1051 73.1136C52.7566 73.1591 52.4309 73.233 52.1278 73.3352C51.8286 73.4337 51.5862 73.5833 51.4006 73.7841C51.2188 73.9811 51.1278 74.25 51.1278 74.5909C51.1278 75.0568 51.3002 75.4091 51.6449 75.6477C51.9934 75.8826 52.4347 76 52.9688 76ZM62.7571 77.1818C61.9389 77.1818 61.2344 76.9886 60.6435 76.6023C60.0526 76.2159 59.598 75.6837 59.2798 75.0057C58.9616 74.3277 58.8026 73.553 58.8026 72.6818C58.8026 71.7955 58.9654 71.0133 59.2912 70.3352C59.6207 69.6534 60.0791 69.1212 60.6662 68.7386C61.2571 68.3523 61.9465 68.1591 62.7344 68.1591C63.348 68.1591 63.901 68.2727 64.3935 68.5C64.8859 68.7273 65.2893 69.0455 65.6037 69.4545C65.9181 69.8636 66.1132 70.3409 66.1889 70.8864H64.848C64.7457 70.4886 64.5185 70.1364 64.1662 69.8295C63.8177 69.5189 63.348 69.3636 62.7571 69.3636C62.2344 69.3636 61.776 69.5 61.3821 69.7727C60.992 70.0417 60.687 70.4223 60.4673 70.9148C60.2514 71.4034 60.1435 71.9773 60.1435 72.6364C60.1435 73.3106 60.2495 73.8977 60.4616 74.3977C60.6776 74.8977 60.9806 75.286 61.3707 75.5625C61.7647 75.839 62.2268 75.9773 62.7571 75.9773C63.1056 75.9773 63.4219 75.9167 63.706 75.7955C63.9901 75.6742 64.2306 75.5 64.4276 75.2727C64.6245 75.0455 64.7647 74.7727 64.848 74.4545H66.1889C66.1132 74.9697 65.9257 75.4337 65.6264 75.8466C65.331 76.2557 64.9389 76.5814 64.4503 76.8239C63.9654 77.0625 63.401 77.1818 62.7571 77.1818ZM69.4901 71.75V77H68.1491V65.3636H69.4901V69.6364H69.6037C69.8082 69.1856 70.1151 68.8277 70.5241 68.5625C70.937 68.2936 71.4863 68.1591 72.1719 68.1591C72.7666 68.1591 73.2874 68.2784 73.7344 68.517C74.1813 68.7519 74.5279 69.1136 74.7741 69.6023C75.0241 70.0871 75.1491 70.7045 75.1491 71.4545V77H73.8082V71.5455C73.8082 70.8523 73.6283 70.3163 73.2685 69.9375C72.9124 69.5549 72.4181 69.3636 71.7855 69.3636C71.3461 69.3636 70.9522 69.4564 70.6037 69.642C70.259 69.8277 69.9863 70.0985 69.7855 70.4545C69.5885 70.8106 69.4901 71.2424 69.4901 71.75ZM81.2614 77.1818C80.4205 77.1818 79.6951 76.9962 79.0852 76.625C78.4792 76.25 78.0114 75.7273 77.6818 75.0568C77.3561 74.3826 77.1932 73.5985 77.1932 72.7045C77.1932 71.8106 77.3561 71.0227 77.6818 70.3409C78.0114 69.6553 78.4697 69.1212 79.0568 68.7386C79.6477 68.3523 80.3371 68.1591 81.125 68.1591C81.5795 68.1591 82.0284 68.2348 82.4716 68.3864C82.9148 68.5379 83.3182 68.7841 83.6818 69.125C84.0455 69.4621 84.3352 69.9091 84.5511 70.4659C84.767 71.0227 84.875 71.7083 84.875 72.5227V73.0909H78.1477V71.9318H83.5114C83.5114 71.4394 83.4129 71 83.2159 70.6136C83.0227 70.2273 82.7462 69.9223 82.3864 69.6989C82.0303 69.4754 81.6098 69.3636 81.125 69.3636C80.5909 69.3636 80.1288 69.4962 79.7386 69.7614C79.3523 70.0227 79.0549 70.3636 78.8466 70.7841C78.6383 71.2045 78.5341 71.6553 78.5341 72.1364V72.9091C78.5341 73.5682 78.6477 74.1269 78.875 74.5852C79.1061 75.0398 79.4261 75.3864 79.8352 75.625C80.2443 75.8598 80.7197 75.9773 81.2614 75.9773C81.6136 75.9773 81.9318 75.928 82.2159 75.8295C82.5038 75.7273 82.7519 75.5758 82.9602 75.375C83.1686 75.1705 83.3295 74.9167 83.4432 74.6136L84.7386 74.9773C84.6023 75.4167 84.3731 75.803 84.0511 76.1364C83.7292 76.4659 83.3314 76.7235 82.858 76.9091C82.3845 77.0909 81.8523 77.1818 81.2614 77.1818ZM91.5966 77V65.3636H95.5284C96.4413 65.3636 97.1875 65.5284 97.767 65.858C98.3504 66.1837 98.7822 66.625 99.0625 67.1818C99.3428 67.7386 99.483 68.3598 99.483 69.0455C99.483 69.7311 99.3428 70.3542 99.0625 70.9148C98.786 71.4754 98.358 71.9223 97.7784 72.2557C97.1989 72.5852 96.4564 72.75 95.5511 72.75H92.733V71.5H95.5057C96.1307 71.5 96.6326 71.392 97.0114 71.1761C97.3902 70.9602 97.6648 70.6686 97.8352 70.3011C98.0095 69.9299 98.0966 69.5114 98.0966 69.0455C98.0966 68.5795 98.0095 68.1629 97.8352 67.7955C97.6648 67.428 97.3883 67.1402 97.0057 66.9318C96.6231 66.7197 96.1155 66.6136 95.483 66.6136H93.0057V77H91.5966ZM107.071 73.4318V68.2727H108.412V77H107.071V75.5227H106.98C106.776 75.9659 106.457 76.3428 106.026 76.6534C105.594 76.9602 105.048 77.1136 104.389 77.1136C103.844 77.1136 103.359 76.9943 102.935 76.7557C102.51 76.5133 102.177 76.1496 101.935 75.6648C101.692 75.1761 101.571 74.5606 101.571 73.8182V68.2727H102.912V73.7273C102.912 74.3636 103.09 74.8712 103.446 75.25C103.806 75.6288 104.264 75.8182 104.821 75.8182C105.154 75.8182 105.493 75.733 105.838 75.5625C106.187 75.392 106.478 75.1307 106.713 74.7784C106.952 74.4261 107.071 73.9773 107.071 73.4318ZM112.209 65.3636V77H110.868V65.3636H112.209ZM120.847 70.2273L119.642 70.5682C119.566 70.3674 119.455 70.1723 119.307 69.983C119.163 69.7898 118.966 69.6307 118.716 69.5057C118.466 69.3807 118.146 69.3182 117.756 69.3182C117.222 69.3182 116.777 69.4413 116.42 69.6875C116.068 69.9299 115.892 70.2386 115.892 70.6136C115.892 70.947 116.013 71.2102 116.256 71.4034C116.498 71.5966 116.877 71.7576 117.392 71.8864L118.688 72.2045C119.468 72.3939 120.049 72.6837 120.432 73.0739C120.814 73.4602 121.006 73.9583 121.006 74.5682C121.006 75.0682 120.862 75.5152 120.574 75.9091C120.29 76.303 119.892 76.6136 119.381 76.8409C118.869 77.0682 118.275 77.1818 117.597 77.1818C116.706 77.1818 115.97 76.9886 115.386 76.6023C114.803 76.2159 114.434 75.6515 114.278 74.9091L115.551 74.5909C115.672 75.0606 115.902 75.4129 116.239 75.6477C116.58 75.8826 117.025 76 117.574 76C118.199 76 118.695 75.8674 119.062 75.6023C119.434 75.3333 119.619 75.0114 119.619 74.6364C119.619 74.3333 119.513 74.0795 119.301 73.875C119.089 73.6667 118.763 73.5114 118.324 73.4091L116.869 73.0682C116.07 72.8788 115.483 72.5852 115.108 72.1875C114.737 71.786 114.551 71.2841 114.551 70.6818C114.551 70.1894 114.689 69.7538 114.966 69.375C115.246 68.9962 115.627 68.6989 116.108 68.483C116.593 68.267 117.142 68.1591 117.756 68.1591C118.619 68.1591 119.297 68.3485 119.79 68.7273C120.286 69.1061 120.638 69.6061 120.847 70.2273ZM125.592 77.2045C125.039 77.2045 124.537 77.1004 124.087 76.892C123.636 76.6799 123.278 76.375 123.013 75.9773C122.748 75.5758 122.615 75.0909 122.615 74.5227C122.615 74.0227 122.714 73.6174 122.911 73.3068C123.107 72.9924 123.371 72.7462 123.7 72.5682C124.03 72.3902 124.393 72.2576 124.791 72.1705C125.193 72.0795 125.596 72.0076 126.001 71.9545C126.532 71.8864 126.962 71.8352 127.291 71.8011C127.625 71.7633 127.867 71.7008 128.018 71.6136C128.174 71.5265 128.251 71.375 128.251 71.1591V71.1136C128.251 70.553 128.098 70.1174 127.791 69.8068C127.488 69.4962 127.028 69.3409 126.411 69.3409C125.77 69.3409 125.268 69.4811 124.905 69.7614C124.541 70.0417 124.286 70.3409 124.138 70.6591L122.865 70.2045C123.092 69.6742 123.395 69.2614 123.774 68.9659C124.157 68.6667 124.573 68.4583 125.024 68.3409C125.479 68.2197 125.926 68.1591 126.365 68.1591C126.645 68.1591 126.967 68.1932 127.331 68.2614C127.698 68.3258 128.053 68.4602 128.393 68.6648C128.738 68.8693 129.024 69.178 129.251 69.5909C129.479 70.0038 129.592 70.5568 129.592 71.25V77H128.251V75.8182H128.183C128.092 76.0076 127.941 76.2102 127.729 76.4261C127.517 76.642 127.234 76.8258 126.882 76.9773C126.53 77.1288 126.1 77.2045 125.592 77.2045ZM125.797 76C126.327 76 126.774 75.8958 127.138 75.6875C127.505 75.4792 127.782 75.2102 127.967 74.8807C128.157 74.5511 128.251 74.2045 128.251 73.8409V72.6136C128.195 72.6818 128.07 72.7443 127.876 72.8011C127.687 72.8542 127.467 72.9015 127.217 72.9432C126.971 72.9811 126.731 73.0152 126.496 73.0455C126.265 73.072 126.077 73.0947 125.933 73.1136C125.585 73.1591 125.259 73.233 124.956 73.3352C124.657 73.4337 124.414 73.5833 124.229 73.7841C124.047 73.9811 123.956 74.25 123.956 74.5909C123.956 75.0568 124.128 75.4091 124.473 75.6477C124.821 75.8826 125.263 76 125.797 76ZM132.04 77V68.2727H133.335V69.5909H133.426C133.585 69.1591 133.873 68.8087 134.29 68.5398C134.706 68.2708 135.176 68.1364 135.699 68.1364C135.797 68.1364 135.92 68.1383 136.068 68.142C136.216 68.1458 136.328 68.1515 136.403 68.1591V69.5227C136.358 69.5114 136.254 69.4943 136.091 69.4716C135.932 69.4451 135.763 69.4318 135.585 69.4318C135.161 69.4318 134.782 69.5208 134.449 69.6989C134.119 69.8731 133.858 70.1155 133.665 70.4261C133.475 70.733 133.381 71.0833 133.381 71.4773V77H132.04Z" fill="#333333"/>
</svg>
