<?xml version="1.0" standalone="no"?>
<!DOCTYPE svg PUBLIC "-//W3C//DTD SVG 20010904//EN"
 "http://www.w3.org/TR/2001/REC-SVG-20010904/DTD/svg10.dtd">
<svg version="1.0" xmlns="http://www.w3.org/2000/svg"
 width="1000.000000pt" height="1000.000000pt" viewBox="0 0 1000.000000 1000.000000"
 preserveAspectRatio="xMidYMid meet">
<metadata>
Created by potrace 1.14, written by Peter Selinger 2001-2017
</metadata>
<g transform="translate(0.000000,1000.000000) scale(0.100000,-0.100000)"
fill="#000000" stroke="none">
<path d="M875 9993 c-422 -54 -766 -374 -854 -795 -19 -91 -20 -161 -20 -4188
0 -3597 2 -4105 15 -4180 61 -350 289 -626 629 -765 22 -9 85 -27 140 -40
l100 -24 4105 0 c4455 0 4167 -4 4336 55 145 49 249 114 369 229 152 146 247
325 289 543 22 113 22 8224 0 8345 -66 363 -321 658 -673 777 -32 10 -71 22
-87 24 -16 3 -51 10 -79 15 -47 10 -8198 13 -8270 4z"/>
</g>
</svg>
